<?xml version="1.0" encoding="UTF-8" standalone="no"?>
<!-- Created with Inkscape (http://www.inkscape.org/) -->

<svg
   version="1.1"
   id="svg48"
   xml:space="preserve"
   width="92.898262"
   height="92.416"
   viewBox="0 0 92.898259 92.416"
   sodipodi:docname="py.svg"
   inkscape:version="1.1.1 (3bf5ae0, 2021-09-20)"
   xmlns:inkscape="http://www.inkscape.org/namespaces/inkscape"
   xmlns:sodipodi="http://sodipodi.sourceforge.net/DTD/sodipodi-0.dtd"
   xmlns="http://www.w3.org/2000/svg"
   xmlns:svg="http://www.w3.org/2000/svg"><defs
     id="defs52"><clipPath
       clipPathUnits="userSpaceOnUse"
       id="clipPath62"><path
         d="M 0,720 H 1280 V 0 H 0 Z"
         id="path60" /></clipPath></defs><sodipodi:namedview
     id="namedview50"
     pagecolor="#ffffff"
     bordercolor="#666666"
     borderopacity="1.0"
     inkscape:pageshadow="2"
     inkscape:pageopacity="0.0"
     inkscape:pagecheckerboard="0"
     showgrid="false"
     fit-margin-top="0"
     fit-margin-left="0"
     fit-margin-right="0"
     fit-margin-bottom="0"
     inkscape:zoom="0.515625"
     inkscape:cx="47.515152"
     inkscape:cy="-70.787879"
     inkscape:window-width="1294"
     inkscape:window-height="704"
     inkscape:window-x="72"
     inkscape:window-y="27"
     inkscape:window-maximized="1"
     inkscape:current-layer="g54" /><g
     id="g54"
     inkscape:groupmode="layer"
     inkscape:label="w"
     transform="matrix(1.3333333,0,0,-1.3333333,-806.88385,165.07973)"><g
       id="g64"
       transform="translate(870.3145,635.3018)"><path
         d="m 0,0 c 3.948,2.624 7.852,5.316 11.847,7.864 2.499,1.594 5.259,2.553 8.332,2.523 3.095,0.062 5.814,-1.035 8.175,-3.048 2.269,-1.933 2.649,-4.364 1.116,-6.911 -0.832,-1.383 -1.962,-2.506 -3.236,-3.472 -3.525,-2.675 -7.3,-4.987 -10.942,-7.495 -0.462,-0.318 -0.849,-0.299 -1.304,0.008 C 9.32,-7.382 4.647,-4.24 -0.034,-1.111 -0.679,-0.681 -0.563,-0.375 0,0 m 34.819,-4.493 c 2.827,1.482 5.839,2.381 9.072,2.239 3.481,-0.153 6.482,-1.482 8.962,-3.933 1.092,-1.082 1.692,-2.444 1.709,-3.719 -0.041,-1.337 -0.616,-2.555 -1.457,-3.673 -1.124,-1.495 -2.536,-2.68 -4.066,-3.721 -3.893,-2.65 -7.81,-5.261 -11.701,-7.913 -0.569,-0.389 -1,-0.351 -1.547,0.019 -5.085,3.441 -10.184,6.863 -15.276,10.293 -0.403,0.271 -0.922,0.557 -0.188,1.027 4.846,3.105 9.378,6.699 14.492,9.381 m -45.541,2.764 c 8.608,-5.792 17.216,-11.582 25.827,-17.368 6.604,-4.438 13.212,-8.868 19.816,-13.306 0.513,-0.344 0.95,-0.667 1.622,-0.211 6.503,4.415 13.05,8.767 19.528,13.218 2.294,1.576 4.262,3.541 5.63,6.016 1.818,3.287 1.485,6.697 -0.912,9.493 -0.705,0.824 -1.472,1.59 -2.343,2.24 C 52.479,2.804 45.901,3.567 38.884,1.54 37.85,1.241 36.865,0.771 35.853,0.39 35.54,0.273 35.148,-0.119 34.91,0.172 c -0.308,0.377 0.224,0.647 0.427,0.922 0.916,1.24 1.439,2.593 1.456,4.156 0.026,2.617 -1.109,4.695 -3.024,6.332 -3.624,3.099 -7.936,4.305 -12.627,4.335 C 15.551,15.957 10.616,14.052 6.056,10.954 0.475,7.164 -5.136,3.416 -10.733,-0.351 c -1.007,-0.678 -1.012,-0.69 0.011,-1.378"
         style="fill:#5c4484;fill-opacity:1;fill-rule:nonzero;stroke:none"
         id="path66" /></g><g
       id="g68"
       transform="translate(389.0337,643.8477)"><path
         d="m 0,0 c -0.072,0.012 -0.144,0.047 -0.212,0.117 -0.255,0.259 0.032,0.51 0.221,0.707 0.103,0.108 0.205,0.217 0.308,0.325 0.007,0.088 0.022,0.172 0.022,0.264 0,-0.092 -0.015,-0.176 -0.022,-0.264 0.725,0.764 1.442,1.539 2.21,2.258 1.73,1.62 3.672,2.582 6.163,2.04 2.22,-0.483 4.468,-2.813 4.836,-5.048 0.346,-2.095 -0.245,-3.861 -1.628,-5.405 -0.311,-0.347 -0.52,-0.616 -0.079,-1.046 1.599,-1.564 3.182,-3.145 4.744,-4.746 0.402,-0.412 0.653,-0.374 1.006,0.04 0.471,0.552 1.025,1.032 1.496,1.583 3.586,4.19 4.663,8.909 2.951,14.202 -0.279,0.864 -0.216,0.976 0.683,0.975 1.815,-0.004 3.41,0.64 4.772,1.775 3.466,2.889 4.087,7.646 1.356,11.283 -1.814,2.417 -4.421,3.628 -7.422,3.199 -4.349,-0.623 -7.119,-3.885 -7.195,-7.891 -0.008,-0.463 -0.221,-0.603 -0.628,-0.531 -0.247,0.044 -0.486,0.129 -0.728,0.199 C 7.32,15.63 2.427,14.482 -1.675,10.443 -5.539,6.637 -9.293,2.72 -13.094,-1.15 c -1.411,-1.436 -2.817,-2.879 -4.233,-4.311 -0.264,-0.267 -0.452,-0.509 -0.114,-0.846 1.642,-1.641 3.283,-3.284 4.924,-4.926 0.242,-0.242 0.453,-0.249 0.711,0.017 1.44,1.484 2.893,2.956 4.345,4.429 1.196,1.216 2.396,2.428 3.594,3.642 0.158,0.16 0.314,0.339 0.571,0.276 0.077,-0.019 0.118,-0.066 0.142,-0.12 C -2.014,-2.11 -0.627,-1.257 0,0"
         style="fill:#fc8f30;fill-opacity:1;fill-rule:nonzero;stroke:none"
         id="path70" /></g><g
       id="g72"
       transform="translate(411.8125,613.8101)"><path
         d="m 0,0 c -0.869,0.022 -0.959,0.14 -0.669,0.922 0.629,1.702 0.866,3.462 0.806,5.648 -0.146,3.227 -1.393,6.399 -3.934,8.976 -2.905,2.947 -5.89,5.814 -8.842,8.713 -2.455,2.411 -4.923,4.809 -7.358,7.238 -0.439,0.438 -0.696,0.386 -1.06,-0.051 -0.338,-0.406 -0.738,-0.763 -1.128,-1.124 -0.169,-0.157 -0.385,-0.321 -0.594,-0.284 -0.627,-1.258 -2.014,-2.11 -3.154,-2.99 0.031,-0.071 0.028,-0.156 0.001,-0.22 -0.23,-0.554 0.171,-0.824 0.483,-1.13 0.84,-0.82 1.689,-1.631 2.528,-2.451 2.338,-2.289 4.706,-4.55 7,-6.883 1.861,-1.893 3.932,-3.585 5.578,-5.686 1.58,-2.016 1.872,-4.233 0.695,-6.515 -1.161,-2.251 -3.048,-3.518 -5.63,-3.608 -1.757,-0.062 -3.165,0.762 -4.447,1.852 -0.287,0.245 -0.486,0.403 -0.832,0.051 -1.608,-1.636 -3.236,-3.252 -4.866,-4.867 -0.307,-0.304 -0.298,-0.541 0.01,-0.842 0.879,-0.859 1.722,-1.761 2.725,-2.48 3.983,-2.852 8.317,-3.582 13.007,-2.126 0.998,0.309 1.098,0.233 1.125,-0.802 0.102,-3.996 3.69,-7.508 7.731,-7.642 4.51,-0.15 8.221,3.337 8.517,7.634 C 7.999,-4.198 4.437,-0.113 0,0"
         style="fill:#e52626;fill-opacity:1;fill-rule:nonzero;stroke:none"
         id="path74" /></g><g
       id="g76"
       transform="translate(384.7285,622.8354)"><path
         d="M 0,0 C 0.543,-0.062 0.785,0.378 1.085,0.683 3.498,3.135 5.907,5.589 8.292,8.068 8.696,8.488 8.94,8.533 9.363,8.097 10.881,6.531 12.421,4.985 13.984,3.463 14.425,3.034 14.46,2.734 14.018,2.289 10.058,-1.698 6.111,-5.699 2.162,-9.695 c -1.826,-1.847 -3.462,-3.897 -5.6,-5.412 -3.968,-2.811 -8.302,-3.385 -12.919,-1.982 -0.941,0.285 -0.976,0.336 -1.052,-0.653 -0.307,-4.005 -3.466,-6.947 -6.723,-7.478 -4.176,-0.68 -7.83,1.459 -9.26,5.44 -1.683,4.686 1.455,10.002 6.419,10.717 0.385,0.056 0.78,0.065 1.17,0.063 0.538,-0.002 0.696,0.179 0.494,0.718 -0.616,1.645 -0.774,3.353 -0.767,5.108 0.015,3.647 1.331,6.749 3.732,9.434 0.466,0.521 1.005,0.977 1.46,1.505 0.456,0.528 0.786,0.42 1.225,-0.035 1.34,-1.39 2.715,-2.745 4.077,-4.112 0.979,-0.982 0.987,-0.987 0.12,-2.03 -0.972,-1.167 -1.442,-2.493 -1.397,-4.019 0.075,-2.596 1.427,-4.399 3.632,-5.518 2.183,-1.108 4.393,-0.845 6.297,0.679 2.074,1.66 3.81,3.692 5.673,5.583 0.167,0.169 0.239,0.433 0.357,0.647 0.007,-0.023 0.013,-0.042 0.019,-0.061 0.019,0.018 0.042,0.035 0.057,0.057 C -0.565,-0.684 -0.059,-0.518 0,0"
         style="fill:#0269a0;fill-opacity:1;fill-rule:nonzero;stroke:none"
         id="path78" /></g><g
       id="g80"
       transform="translate(384.7285,622.8354)"><path
         d="m 0,0 c -0.059,-0.518 -0.565,-0.684 -0.824,-1.044 -0.015,-0.022 -0.038,-0.039 -0.057,-0.057 -0.006,0.019 -0.012,0.038 -0.019,0.061 -0.426,0.522 -0.726,0.129 -1.01,-0.153 -1.034,-1.023 -2.082,-2.034 -3.068,-3.102 -0.459,-0.497 -0.751,-0.486 -1.213,-0.018 -1.883,1.908 -3.787,3.794 -5.701,5.672 -3.051,2.994 -6.086,6.006 -9.185,8.948 -2.262,2.147 -3.946,4.611 -4.691,7.663 -0.653,2.673 -0.526,5.319 0.376,7.916 0.37,1.065 0.335,1.158 -0.742,1.185 -3.013,0.075 -5.963,2.316 -7.059,5.196 -1.672,4.39 0.754,8.956 4.865,10.503 4.359,1.64 9.113,-1.041 10.407,-5.175 0.231,-0.738 0.277,-1.471 0.325,-2.221 0.046,-0.721 0.321,-0.888 0.98,-0.675 5.585,1.802 10.503,0.644 14.732,-3.393 1.672,-1.596 1.613,-1.608 -0.096,-3.157 -1.191,-1.079 -2.359,-2.194 -3.432,-3.388 -0.422,-0.47 -0.605,-0.402 -0.967,-0.054 -1.637,1.571 -3.591,2.104 -5.791,1.644 -2.541,-0.531 -4.727,-3.063 -4.921,-5.495 -0.212,-2.648 0.989,-4.538 2.761,-6.263 4.622,-4.5 9.212,-9.032 13.85,-13.515 C -0.123,0.733 -0.32,0.28 0,0"
         style="fill:#5aa426;fill-opacity:1;fill-rule:nonzero;stroke:none"
         id="path82" /></g><g
       id="g84"
       transform="translate(93.5981,629.645)"><path
         d="m 0,0 c 0.186,4.444 1.133,8.733 2.933,12.818 0.084,0.189 0.111,0.417 0.337,0.524 0.307,-0.046 0.316,-0.324 0.392,-0.534 0.787,-2.171 1.567,-4.346 2.348,-6.519 2.666,-7.422 5.335,-14.844 7.996,-22.267 1.828,-5.099 3.645,-10.201 5.471,-15.3 0.179,-0.5 0.412,-0.981 0.569,-1.487 0.12,-0.384 0.523,-0.853 0.162,-1.168 -0.317,-0.276 -0.732,0.146 -1.068,0.323 -2.074,1.095 -3.999,2.416 -5.816,3.894 -3.929,3.195 -7.043,7.059 -9.347,11.561 C 1.061,-12.458 -0.268,-6.391 0,0 m 6.598,19.431 c 1.541,2.141 3.275,4.114 5.23,5.888 6.111,5.545 13.288,8.664 21.494,9.458 1.035,0.1 2.066,0.14 3.104,0.135 9.02,-0.059 16.962,-3.013 23.811,-8.89 0.21,-0.18 0.562,-0.343 0.454,-0.677 -0.097,-0.3 -0.459,-0.21 -0.707,-0.233 -4.016,-0.366 -6.498,-4.365 -5.108,-8.859 0.546,-1.763 1.513,-3.338 2.487,-4.89 2.253,-3.587 3.741,-7.399 3.518,-11.714 -0.148,-2.887 -0.849,-5.673 -1.819,-8.384 -1.335,-3.728 -2.44,-7.527 -3.584,-11.314 -0.269,-0.89 -0.526,-1.784 -0.816,-2.666 -0.083,-0.253 -0.06,-0.68 -0.44,-0.656 -0.293,0.018 -0.296,0.403 -0.375,0.644 -1.412,4.29 -2.813,8.584 -4.226,12.874 -2.683,8.151 -5.372,16.3 -8.057,24.449 -0.339,1.029 -0.26,1.114 0.834,1.182 1.033,0.065 2.067,0.144 3.092,0.285 0.862,0.12 1.282,0.634 1.256,1.373 -0.026,0.743 -0.577,1.299 -1.434,1.301 -0.981,0.002 -1.964,-0.073 -2.941,-0.161 -5.046,-0.454 -10.082,-0.276 -15.118,0.166 -0.369,0.032 -0.743,0.046 -1.114,0.034 -0.876,-0.027 -1.358,-0.441 -1.423,-1.191 -0.069,-0.808 0.342,-1.357 1.211,-1.481 1.024,-0.145 2.057,-0.237 3.089,-0.319 0.516,-0.041 0.822,-0.262 0.998,-0.752 1.708,-4.778 3.425,-9.553 5.149,-14.325 0.164,-0.455 0.12,-0.862 -0.032,-1.312 -2.501,-7.397 -4.986,-14.799 -7.484,-22.198 -0.097,-0.287 -0.085,-0.769 -0.432,-0.779 -0.407,-0.011 -0.413,0.493 -0.513,0.794 -1.577,4.795 -3.133,9.597 -4.706,14.393 -2.502,7.623 -5.012,15.245 -7.521,22.866 -0.392,1.189 -0.369,1.249 0.852,1.382 0.871,0.096 1.746,0.151 2.618,0.233 1.073,0.102 1.677,0.665 1.607,1.484 -0.073,0.844 -0.74,1.306 -1.807,1.236 C 14.326,18.584 10.906,18.361 7.476,18.447 7.343,18.45 7.209,18.443 7.077,18.453 6.818,18.472 6.499,18.398 6.345,18.657 6.16,18.968 6.435,19.205 6.598,19.431 M 67.391,5.32 c 0.543,2.338 0.846,4.702 0.833,6.848 -0.032,1.132 0.016,2.01 -0.127,2.881 -0.035,0.219 -0.162,0.549 0.129,0.628 0.283,0.078 0.343,-0.275 0.445,-0.471 1.535,-2.942 2.565,-6.061 3.232,-9.303 0.921,-4.473 0.981,-8.968 0.182,-13.457 -1.516,-8.515 -5.562,-15.618 -12.036,-21.352 -1.577,-1.397 -3.277,-2.615 -5.074,-3.705 -0.193,-0.117 -0.397,-0.376 -0.633,-0.197 -0.24,0.182 -0.046,0.445 0.029,0.658 1.84,5.18 3.7,10.354 5.525,15.54 1.579,4.484 3.098,8.988 4.684,13.469 0.992,2.803 2.135,5.554 2.811,8.461 M 47.216,-36.151 c -3.524,-1.087 -7.114,-1.75 -9.604,-1.708 -4.521,0.032 -7.787,0.335 -10.977,1.284 -0.71,0.212 -0.883,0.523 -0.635,1.207 0.923,2.547 1.827,5.101 2.72,7.66 1.784,5.114 3.552,10.234 5.335,15.349 0.812,2.332 1.64,4.659 2.468,6.985 0.085,0.24 0.071,0.63 0.365,0.652 0.363,0.027 0.383,-0.391 0.474,-0.644 0.998,-2.774 1.976,-5.555 2.97,-8.331 1.987,-5.549 3.983,-11.095 5.971,-16.643 0.538,-1.5 1.067,-3.004 1.59,-4.509 0.31,-0.894 0.238,-1.02 -0.677,-1.302 M 36.527,-41.637 C 58.38,-41.689 76.861,-23.673 76.467,-0.559 76.093,21.408 58.408,38.594 36.714,38.691 14.157,38.792 -4.553,20.583 -3.844,-2.918 c 0.64,-21.221 18.063,-38.986 40.371,-38.719"
         style="fill:#585858;fill-opacity:1;fill-rule:nonzero;stroke:none"
         id="path86" /></g><g
       id="g132"
       transform="translate(1185.7578,648.2944)"><path
         d="m 0,0 c -0.431,0 -0.881,0.082 -1.29,-0.014 -2.235,-0.521 -3.982,-1.783 -5.354,-3.608 -2.29,-3.047 -3.691,-6.526 -4.888,-10.096 -1.586,-4.728 -3.368,-9.365 -5.948,-13.656 -0.208,-0.347 -0.495,-0.648 -0.837,-1.091 -1.229,2.047 -1.524,3.992 -0.801,6.096 1.052,3.058 2.087,6.123 3.083,9.2 0.498,1.539 0.952,3.096 1.321,4.67 1.168,4.981 4.43,7.725 9.293,8.709 1.731,0.35 3.502,0.537 5.265,0.661 C 0.486,0.916 1.155,0.555 1.815,0.395 2.007,0.348 2.212,0.329 2.407,0.341 c 0.516,0.03 1.029,0.083 1.771,0.147 -3.36,-6.916 -6.648,-13.684 -9.935,-20.452 0.087,-0.05 0.174,-0.1 0.261,-0.15 0.789,1.182 1.649,2.322 2.352,3.553 2.835,4.957 5.639,9.933 8.418,14.921 1.16,2.082 2.613,2.76 4.625,1.968 C 9.751,-0.035 9.645,-0.422 9.447,-0.756 5.315,-7.75 1.258,-14.791 -3.011,-21.7 c -1.66,-2.687 -3.668,-5.197 -5.779,-7.552 -1.146,-1.277 -2.77,-2.191 -4.309,-3.029 -1.479,-0.805 -3.034,-0.211 -3.827,1.253 -0.175,0.323 -0.195,0.965 0.01,1.224 3.956,4.972 6.07,10.82 8.158,16.708 0.926,2.607 2.13,5.128 3.359,7.613 1.166,2.356 2.963,4.168 5.437,5.238 z"
         style="fill:#2496d4;fill-opacity:1;fill-rule:nonzero;stroke:none"
         id="path134" /></g><g
       id="g136"
       transform="translate(1123.8848,623.6152)"><path
         d="m 0,0 c 0.164,0.337 0.348,0.666 0.488,1.012 1.903,4.673 3.962,9.267 6.715,13.517 1.622,2.505 3.481,4.802 5.862,6.635 1.447,1.113 2.006,1.004 2.996,-0.542 2.128,-3.329 3.365,-7.019 4.554,-10.757 1.183,-3.718 2.566,-7.376 3.962,-11.022 1.114,-2.91 2.918,-5.288 5.84,-6.647 0.069,-0.032 0.114,-0.118 0.224,-0.238 -2.657,-0.339 -4.867,0.411 -6.725,2.233 -1.942,1.904 -3.007,4.291 -3.695,6.858 -1.377,5.13 -2.702,10.274 -4.052,15.411 -0.129,0.491 -0.278,0.977 -0.496,1.733 -0.968,-1.04 -1.877,-1.857 -2.595,-2.817 C 9.874,11.091 7.787,6.254 6.258,1.162 5.58,-1.099 4.957,-3.365 3.252,-5.135 0.549,-7.94 -2.864,-8.912 -6.625,-9.011 c -0.596,-0.015 -0.846,0.302 -0.755,0.87 1.485,9.305 4.134,18.166 9.898,25.828 1.896,2.52 4.159,4.645 7.001,6.083 1.215,0.615 2.447,0.749 3.646,-0.068 0.686,-0.467 0.714,-0.816 0.012,-1.205 C 8.109,19.684 4.951,15.283 2.922,10.008 1.795,7.08 0.891,4.066 -0.096,1.085 -0.201,0.768 -0.189,0.413 -0.232,0.076 -0.154,0.05 -0.077,0.025 0,0"
         style="fill:#2496d4;fill-opacity:1;fill-rule:nonzero;stroke:none"
         id="path138" /></g><g
       id="g140"
       transform="translate(1139.8848,646.2607)"><path
         d="m 0,0 c 3.674,2.857 8.1,2.274 10.639,-1.459 0.921,-1.355 1.799,-2.796 2.374,-4.32 1.161,-3.078 2.14,-6.228 3.125,-9.37 1.28,-4.089 2.705,-8.111 4.999,-11.766 0.463,-0.739 0.362,-1.343 -0.247,-1.964 -1.767,-1.803 -3.696,-1.85 -5.526,-0.04 -3.157,3.123 -5.111,6.964 -6.548,11.107 -0.989,2.854 -1.884,5.746 -2.996,8.551 C 4.461,-5.831 2.483,-2.745 0,0"
         style="fill:#2496d4;fill-opacity:1;fill-rule:nonzero;stroke:none"
         id="path142" /></g><g
       id="g144"
       transform="translate(1148.6152,647.9092)"><path
         d="m 0,0 c 4.987,0.662 8.716,-1.185 10.386,-5.344 1.201,-2.991 2.104,-6.11 3.012,-9.209 0.729,-2.486 1.221,-5.04 1.906,-7.54 0.398,-1.455 0.254,-2.761 -0.554,-4.022 -0.244,-0.38 -0.425,-0.8 -0.746,-1.415 -0.307,0.442 -0.572,0.74 -0.744,1.086 -2.378,4.778 -3.64,9.951 -5.304,14.984 C 7.221,-9.237 6.33,-7.056 5.362,-4.923 4.369,-2.734 2.714,-1.137 0.444,-0.235 0.315,-0.184 0.197,-0.105 0,0"
         style="fill:#2496d4;fill-opacity:1;fill-rule:nonzero;stroke:none"
         id="path146" /></g><g
       id="g148"
       transform="translate(1132.3271,647.8027)"><path
         d="m 0,0 c -0.194,-0.174 -0.36,-0.404 -0.585,-0.515 -3.976,-1.958 -6.799,-5.152 -9.14,-8.772 -4.019,-6.213 -6.403,-13.075 -7.685,-20.338 -0.128,-0.722 -0.233,-1.448 -0.361,-2.169 -0.194,-1.105 -0.587,-1.459 -1.723,-1.491 -0.61,-0.017 -1.222,0.018 -1.831,0.061 -0.956,0.067 -1.222,0.372 -1.001,1.296 0.241,1.008 0.563,1.997 0.876,2.986 2.45,7.743 5.752,15.06 10.851,21.461 2.063,2.589 4.198,5.12 7.279,6.581 1.024,0.485 2.095,0.874 3.145,1.307 C -0.117,0.271 -0.059,0.135 0,0"
         style="fill:#2496d4;fill-opacity:1;fill-rule:nonzero;stroke:none"
         id="path150" /></g><g
       id="g152"
       transform="translate(1165.0918,621.3008)"><path
         d="M 0,0 C 0.364,-0.88 0.71,-1.564 0.918,-2.288 1.021,-2.646 1.009,-3.2 0.796,-3.448 0.491,-3.803 -0.152,-4.256 -0.463,-4.145 -1.307,-3.841 -1.565,-2.779 -1.15,-2.026 -0.802,-1.395 -0.438,-0.771 0,0"
         style="fill:#2496d4;fill-opacity:1;fill-rule:nonzero;stroke:none"
         id="path154" /></g><g
       id="g156"
       transform="translate(1159.8271,615.6113)"><path
         d="M 0,0 C 0.761,0.479 1.507,0.982 2.284,1.431 2.926,1.8 3.265,1.258 3.479,0.834 3.555,0.685 3.185,0.09 2.95,0.043 2.001,-0.146 1.025,-0.199 0.06,-0.303 0.04,-0.202 0.02,-0.101 0,0"
         style="fill:#2496d4;fill-opacity:1;fill-rule:nonzero;stroke:none"
         id="path158" /></g><g
       id="g160"
       transform="translate(1137.5586,648.1221)"><path
         d="M 0,0 H 3.619 C 2.333,-1.174 0.981,-1.23 0,0"
         style="fill:#2496d4;fill-opacity:1;fill-rule:nonzero;stroke:none"
         id="path162" /></g><g
       id="g164"
       transform="translate(1168.4658,615.5806)"><path
         d="M 0,0 C -0.9,-0.274 -1.707,-0.406 -2.323,0.438 -1.477,1.554 -1.187,1.503 0,0"
         style="fill:#2496d4;fill-opacity:1;fill-rule:nonzero;stroke:none"
         id="path166" /></g><g
       id="g180"
       transform="translate(640.0034,663.6011)"><path
         d="m 0,0 c -1.196,-3.203 -3.203,-5.735 -5.436,-8.116 -3.695,-3.942 -7.541,-7.756 -11.027,-11.875 -3.651,-4.315 -5.864,-9.321 -6.076,-15.13 -0.506,-13.885 11.61,-25.209 25.777,-23.161 15.79,2.282 24.165,19.7 16.378,33.632 -2.767,4.951 -6.727,8.892 -10.664,12.868 C 5.479,-8.277 1.845,-4.884 0,0 M 0.042,9.958 C 22.521,10.247 40.83,-8.329 41.71,-29.866 42.724,-54.65 22.227,-73.546 -0.052,-73.482 c -22.49,0.065 -42.196,18.884 -41.692,42.719 0.473,22.341 19.282,41.077 41.786,40.721"
         style="fill:#28a9e0;fill-opacity:1;fill-rule:nonzero;stroke:none"
         id="path182" /></g><g
       id="g837"><g
         id="g364"
         transform="translate(630.4419,118.4658)"><path
           d="m 0,0 c 1.679,0 3.037,-1.357 3.037,-3.036 0,-1.68 -1.358,-3.037 -3.037,-3.037 -1.68,0 -3.037,1.357 -3.037,3.037 C -3.037,-1.357 -1.68,0 0,0 m 9.307,5.344 c -17.688,0 -16.583,-7.671 -16.583,-7.671 l 0.02,-7.946 H 9.623 v -2.386 h -23.584 c 0,0 -11.318,1.283 -11.318,-16.564 0,-17.846 9.879,-17.214 9.879,-17.214 h 5.896 v 8.282 c 0,0 -0.318,9.879 9.721,9.879 h 16.741 c 0,0 9.406,-0.152 9.406,9.09 v 15.282 c 0,0 1.428,9.248 -17.057,9.248"
           style="fill:#4381b1;fill-opacity:1;fill-rule:nonzero;stroke:none"
           id="path366" /></g><g
         id="g368"
         transform="translate(649.5586,59.8418)"><path
           d="m 0,0 c -1.68,0 -3.037,1.357 -3.037,3.036 0,1.68 1.357,3.037 3.037,3.037 1.679,0 3.036,-1.357 3.036,-3.037 C 3.036,1.357 1.679,0 0,0 m -9.308,-5.344 c 17.688,0 16.583,7.67 16.583,7.67 L 7.256,10.273 H -9.623 v 2.386 H 13.96 c 0,0 11.318,-1.284 11.318,16.564 0,17.846 -9.879,17.214 -9.879,17.214 H 9.504 v -8.282 c 0,0 0.318,-9.879 -9.721,-9.879 h -16.741 c 0,0 -9.406,0.152 -9.406,-9.09 V 3.904 c 0,0 -1.428,-9.248 17.056,-9.248"
           style="fill:#e09e19;fill-opacity:1;fill-rule:nonzero;stroke:none"
           id="path370" /></g></g></g></svg>
